<svg width="29" height="29" viewBox="0 0 29 29" fill="none" xmlns="http://www.w3.org/2000/svg">
<path d="M7.5 13H21.5C24.5391 13 27 10.5391 27 7.5C27 4.46094 24.5391 2 21.5 2H7.5C4.46094 2 2 4.46094 2 7.5C2 10.5391 4.46094 13 7.5 13ZM7.5 4H21.5C23.4336 4 25 5.56641 25 7.5C25 9.43359 23.4336 11 21.5 11H7.5C5.56641 11 4 9.43359 4 7.5C4 5.56641 5.56641 4 7.5 4ZM7.5 10C8.87891 10 10 8.87891 10 7.5C10 6.12109 8.87891 5 7.5 5C6.12109 5 5 6.12109 5 7.5C5 8.87891 6.12109 10 7.5 10ZM21.5 16H7.5C4.46094 16 2 18.4609 2 21.5C2 24.5391 4.46094 27 7.5 27H21.5C24.5391 27 27 24.5391 27 21.5C27 18.4609 24.5391 16 21.5 16ZM22.9336 24C21.5547 24 20.4336 22.8789 20.4336 21.5C20.4336 20.1211 21.5547 19 22.9336 19C24.3164 19 25.4336 20.1211 25.4336 21.5C25.4336 22.8789 24.3164 24 22.9336 24Z" fill="white"/>
</svg>
