<svg width="64" height="64" viewBox="0 0 64 64" fill="none" xmlns="http://www.w3.org/2000/svg">
<g filter="url(#filter0_d)">
<rect x="4" y="4" width="56" height="56" rx="13" fill="url(#paint0_linear)"/>
</g>
<g filter="url(#filter1_d)">
<path d="M27.5813 46.9852L27.0402 35.739L34.8226 39.9624L27.5813 46.9852Z" fill="#A1C1D7"/>
<path d="M46.9954 19.4402L23.0246 33.5658L27.5813 46.9851L28.4926 36.9605L48.5419 20.1464V18.7339L46.9954 19.4402Z" fill="#C1D6E8"/>
<path d="M48.29 16.6781L15.4099 29.7168C14.5595 30.054 14.5708 31.2615 15.4274 31.5827L22.7418 34.3256C23.0348 34.4355 23.3623 34.4018 23.6269 34.2347L38.4616 24.8654C39.4878 24.2173 40.5653 25.6138 39.6779 26.442L29.2077 36.2142C28.7446 36.6465 28.795 37.395 29.312 37.7612L42.3641 47.0065C42.9549 47.4249 43.7807 47.0964 43.9227 46.3866L49.6392 17.8038C49.7947 17.0264 49.027 16.3858 48.29 16.6781Z" fill="url(#paint1_linear)"/>
</g>
<defs>
<filter id="filter0_d" x="4" y="4" width="56" height="58" filterUnits="userSpaceOnUse" color-interpolation-filters="sRGB">
<feFlood flood-opacity="0" result="BackgroundImageFix"/>
<feColorMatrix in="SourceAlpha" type="matrix" values="0 0 0 0 0 0 0 0 0 0 0 0 0 0 0 0 0 0 127 0"/>
<feOffset dy="2"/>
<feColorMatrix type="matrix" values="0 0 0 0 0 0 0 0 0 0 0 0 0 0 0 0 0 0 0.25 0"/>
<feBlend mode="normal" in2="BackgroundImageFix" result="effect1_dropShadow"/>
<feBlend mode="normal" in="SourceGraphic" in2="effect1_dropShadow" result="shape"/>
</filter>
<filter id="filter1_d" x="14.7785" y="16.606" width="35.881" height="34.5853" filterUnits="userSpaceOnUse" color-interpolation-filters="sRGB">
<feFlood flood-opacity="0" result="BackgroundImageFix"/>
<feColorMatrix in="SourceAlpha" type="matrix" values="0 0 0 0 0 0 0 0 0 0 0 0 0 0 0 0 0 0 127 0"/>
<feOffset dx="1" dy="4"/>
<feColorMatrix type="matrix" values="0 0 0 0 0 0 0 0 0 0 0 0 0 0 0 0 0 0 0.25 0"/>
<feBlend mode="normal" in2="BackgroundImageFix" result="effect1_dropShadow"/>
<feBlend mode="normal" in="SourceGraphic" in2="effect1_dropShadow" result="shape"/>
</filter>
<linearGradient id="paint0_linear" x1="60" y1="102" x2="-14" y2="4.18297e-06" gradientUnits="userSpaceOnUse">
<stop offset="0.46723" stop-color="#2AA1DD"/>
<stop offset="1" stop-color="#ACE3FF"/>
</linearGradient>
<linearGradient id="paint1_linear" x1="31.5" y1="16" x2="31.5" y2="47.8966" gradientUnits="userSpaceOnUse">
<stop stop-color="#F6FAFD"/>
<stop offset="1" stop-color="#E1F1F9"/>
</linearGradient>
</defs>
</svg>
